<mxfile host="app.diagrams.net" modified="2023-10-05T19:39:26.830Z" agent="Mozilla/5.0 (Windows NT 10.0; Win64; x64) AppleWebKit/537.36 (KHTML, like Gecko) Chrome/117.0.0.0 Safari/537.36" etag="tDrb2PfxsSu-xAcbHPi5" version="21.8.1" type="device">
  <diagram name="Page-1" id="B3XxmcfRc2w58lhSW3t0">
    <mxGraphModel dx="2311" dy="1748" grid="1" gridSize="10" guides="1" tooltips="1" connect="1" arrows="1" fold="1" page="1" pageScale="1" pageWidth="850" pageHeight="1100" math="0" shadow="0">
      <root>
        <mxCell id="0" />
        <mxCell id="1" parent="0" />
        <mxCell id="_PZLdivWwmrrmcJgCPUn-18" style="edgeStyle=orthogonalEdgeStyle;rounded=0;orthogonalLoop=1;jettySize=auto;html=1;exitX=1;exitY=1;exitDx=0;exitDy=0;entryX=0.25;entryY=0;entryDx=0;entryDy=0;" edge="1" parent="1" source="_PZLdivWwmrrmcJgCPUn-1" target="_PZLdivWwmrrmcJgCPUn-17">
          <mxGeometry relative="1" as="geometry">
            <Array as="points">
              <mxPoint x="440" y="60" />
              <mxPoint x="550" y="60" />
            </Array>
          </mxGeometry>
        </mxCell>
        <mxCell id="_PZLdivWwmrrmcJgCPUn-20" value="filename" style="edgeLabel;html=1;align=center;verticalAlign=middle;resizable=0;points=[];" vertex="1" connectable="0" parent="_PZLdivWwmrrmcJgCPUn-18">
          <mxGeometry x="-0.0383" y="-3" relative="1" as="geometry">
            <mxPoint x="-19" y="-13" as="offset" />
          </mxGeometry>
        </mxCell>
        <mxCell id="_PZLdivWwmrrmcJgCPUn-28" style="edgeStyle=orthogonalEdgeStyle;rounded=0;orthogonalLoop=1;jettySize=auto;html=1;exitX=1;exitY=0.75;exitDx=0;exitDy=0;entryX=0.25;entryY=0;entryDx=0;entryDy=0;" edge="1" parent="1" source="_PZLdivWwmrrmcJgCPUn-1" target="_PZLdivWwmrrmcJgCPUn-22">
          <mxGeometry relative="1" as="geometry" />
        </mxCell>
        <mxCell id="_PZLdivWwmrrmcJgCPUn-29" value="filename" style="edgeLabel;html=1;align=center;verticalAlign=middle;resizable=0;points=[];" vertex="1" connectable="0" parent="_PZLdivWwmrrmcJgCPUn-28">
          <mxGeometry x="0.5407" relative="1" as="geometry">
            <mxPoint x="-30" as="offset" />
          </mxGeometry>
        </mxCell>
        <mxCell id="_PZLdivWwmrrmcJgCPUn-31" style="edgeStyle=orthogonalEdgeStyle;rounded=0;orthogonalLoop=1;jettySize=auto;html=1;exitX=0;exitY=0.25;exitDx=0;exitDy=0;entryX=0.25;entryY=0;entryDx=0;entryDy=0;" edge="1" parent="1" source="_PZLdivWwmrrmcJgCPUn-1" target="_PZLdivWwmrrmcJgCPUn-21">
          <mxGeometry relative="1" as="geometry" />
        </mxCell>
        <mxCell id="_PZLdivWwmrrmcJgCPUn-32" value="board" style="edgeLabel;html=1;align=center;verticalAlign=middle;resizable=0;points=[];" vertex="1" connectable="0" parent="_PZLdivWwmrrmcJgCPUn-31">
          <mxGeometry x="0.7577" y="-2" relative="1" as="geometry">
            <mxPoint x="22" as="offset" />
          </mxGeometry>
        </mxCell>
        <mxCell id="_PZLdivWwmrrmcJgCPUn-35" style="edgeStyle=orthogonalEdgeStyle;rounded=0;orthogonalLoop=1;jettySize=auto;html=1;exitX=0;exitY=0.5;exitDx=0;exitDy=0;entryX=0.25;entryY=0;entryDx=0;entryDy=0;" edge="1" parent="1" source="_PZLdivWwmrrmcJgCPUn-1" target="_PZLdivWwmrrmcJgCPUn-34">
          <mxGeometry relative="1" as="geometry" />
        </mxCell>
        <mxCell id="_PZLdivWwmrrmcJgCPUn-37" value="prompt" style="edgeLabel;html=1;align=center;verticalAlign=middle;resizable=0;points=[];" vertex="1" connectable="0" parent="_PZLdivWwmrrmcJgCPUn-35">
          <mxGeometry x="0.7585" y="-3" relative="1" as="geometry">
            <mxPoint as="offset" />
          </mxGeometry>
        </mxCell>
        <mxCell id="_PZLdivWwmrrmcJgCPUn-38" value="board" style="edgeLabel;html=1;align=center;verticalAlign=middle;resizable=0;points=[];" vertex="1" connectable="0" parent="_PZLdivWwmrrmcJgCPUn-35">
          <mxGeometry x="0.8124" y="1" relative="1" as="geometry">
            <mxPoint as="offset" />
          </mxGeometry>
        </mxCell>
        <mxCell id="_PZLdivWwmrrmcJgCPUn-45" style="edgeStyle=orthogonalEdgeStyle;rounded=0;orthogonalLoop=1;jettySize=auto;html=1;exitX=0.25;exitY=0;exitDx=0;exitDy=0;entryX=0.25;entryY=0;entryDx=0;entryDy=0;" edge="1" parent="1" source="_PZLdivWwmrrmcJgCPUn-1" target="_PZLdivWwmrrmcJgCPUn-41">
          <mxGeometry relative="1" as="geometry">
            <Array as="points">
              <mxPoint x="245" y="-150" />
              <mxPoint x="-290" y="-150" />
            </Array>
          </mxGeometry>
        </mxCell>
        <mxCell id="_PZLdivWwmrrmcJgCPUn-46" value="prompt, board" style="edgeLabel;html=1;align=center;verticalAlign=middle;resizable=0;points=[];" vertex="1" connectable="0" parent="_PZLdivWwmrrmcJgCPUn-45">
          <mxGeometry x="0.7115" y="1" relative="1" as="geometry">
            <mxPoint as="offset" />
          </mxGeometry>
        </mxCell>
        <mxCell id="_PZLdivWwmrrmcJgCPUn-1" value="Main" style="rounded=0;whiteSpace=wrap;html=1;" vertex="1" parent="1">
          <mxGeometry x="180" y="-100" width="260" height="100" as="geometry" />
        </mxCell>
        <mxCell id="_PZLdivWwmrrmcJgCPUn-5" style="edgeStyle=orthogonalEdgeStyle;rounded=0;orthogonalLoop=1;jettySize=auto;html=1;exitX=0.75;exitY=0;exitDx=0;exitDy=0;entryX=0.25;entryY=1;entryDx=0;entryDy=0;" edge="1" parent="1" source="_PZLdivWwmrrmcJgCPUn-2" target="_PZLdivWwmrrmcJgCPUn-1">
          <mxGeometry relative="1" as="geometry" />
        </mxCell>
        <mxCell id="_PZLdivWwmrrmcJgCPUn-10" value="prompt" style="edgeLabel;html=1;align=center;verticalAlign=middle;resizable=0;points=[];" vertex="1" connectable="0" parent="_PZLdivWwmrrmcJgCPUn-5">
          <mxGeometry x="0.0326" y="6" relative="1" as="geometry">
            <mxPoint y="-4" as="offset" />
          </mxGeometry>
        </mxCell>
        <mxCell id="_PZLdivWwmrrmcJgCPUn-2" value="get_prompt" style="rounded=0;whiteSpace=wrap;html=1;" vertex="1" parent="1">
          <mxGeometry x="130" y="180" width="120" height="60" as="geometry" />
        </mxCell>
        <mxCell id="_PZLdivWwmrrmcJgCPUn-8" value="" style="endArrow=none;html=1;rounded=0;entryX=0.073;entryY=0.991;entryDx=0;entryDy=0;exitX=0.5;exitY=0;exitDx=0;exitDy=0;entryPerimeter=0;" edge="1" parent="1" source="_PZLdivWwmrrmcJgCPUn-2" target="_PZLdivWwmrrmcJgCPUn-1">
          <mxGeometry width="50" height="50" relative="1" as="geometry">
            <mxPoint x="400" y="360" as="sourcePoint" />
            <mxPoint x="450" y="310" as="targetPoint" />
            <Array as="points">
              <mxPoint x="190" y="120" />
              <mxPoint x="190" y="40" />
              <mxPoint x="200" y="40" />
            </Array>
          </mxGeometry>
        </mxCell>
        <mxCell id="_PZLdivWwmrrmcJgCPUn-12" style="edgeStyle=orthogonalEdgeStyle;rounded=0;orthogonalLoop=1;jettySize=auto;html=1;exitX=0.75;exitY=0;exitDx=0;exitDy=0;entryX=0.829;entryY=1.035;entryDx=0;entryDy=0;entryPerimeter=0;" edge="1" parent="1" source="_PZLdivWwmrrmcJgCPUn-14" target="_PZLdivWwmrrmcJgCPUn-1">
          <mxGeometry relative="1" as="geometry">
            <mxPoint x="420" y="10" as="targetPoint" />
          </mxGeometry>
        </mxCell>
        <mxCell id="_PZLdivWwmrrmcJgCPUn-13" value="file_name" style="edgeLabel;html=1;align=center;verticalAlign=middle;resizable=0;points=[];" vertex="1" connectable="0" parent="_PZLdivWwmrrmcJgCPUn-12">
          <mxGeometry x="0.0326" y="6" relative="1" as="geometry">
            <mxPoint y="-4" as="offset" />
          </mxGeometry>
        </mxCell>
        <mxCell id="_PZLdivWwmrrmcJgCPUn-14" value="get_filename" style="rounded=0;whiteSpace=wrap;html=1;" vertex="1" parent="1">
          <mxGeometry x="330" y="180" width="120" height="60" as="geometry" />
        </mxCell>
        <mxCell id="_PZLdivWwmrrmcJgCPUn-16" value="" style="endArrow=none;html=1;rounded=0;entryX=0.64;entryY=1.03;entryDx=0;entryDy=0;exitX=0.158;exitY=-0.061;exitDx=0;exitDy=0;exitPerimeter=0;entryPerimeter=0;" edge="1" parent="1" source="_PZLdivWwmrrmcJgCPUn-14" target="_PZLdivWwmrrmcJgCPUn-1">
          <mxGeometry width="50" height="50" relative="1" as="geometry">
            <mxPoint x="230" y="260" as="sourcePoint" />
            <mxPoint x="280" y="210" as="targetPoint" />
          </mxGeometry>
        </mxCell>
        <mxCell id="_PZLdivWwmrrmcJgCPUn-17" value="save_game" style="rounded=0;whiteSpace=wrap;html=1;" vertex="1" parent="1">
          <mxGeometry x="520" y="180" width="120" height="60" as="geometry" />
        </mxCell>
        <mxCell id="_PZLdivWwmrrmcJgCPUn-21" value="display_board" style="rounded=0;whiteSpace=wrap;html=1;" vertex="1" parent="1">
          <mxGeometry x="-160" y="180" width="120" height="60" as="geometry" />
        </mxCell>
        <mxCell id="_PZLdivWwmrrmcJgCPUn-27" style="edgeStyle=orthogonalEdgeStyle;rounded=0;orthogonalLoop=1;jettySize=auto;html=1;exitX=0.75;exitY=0;exitDx=0;exitDy=0;entryX=1;entryY=0.25;entryDx=0;entryDy=0;" edge="1" parent="1" source="_PZLdivWwmrrmcJgCPUn-22" target="_PZLdivWwmrrmcJgCPUn-1">
          <mxGeometry relative="1" as="geometry" />
        </mxCell>
        <mxCell id="_PZLdivWwmrrmcJgCPUn-30" value="board" style="edgeLabel;html=1;align=center;verticalAlign=middle;resizable=0;points=[];" vertex="1" connectable="0" parent="_PZLdivWwmrrmcJgCPUn-27">
          <mxGeometry x="-0.6332" y="-3" relative="1" as="geometry">
            <mxPoint x="17" as="offset" />
          </mxGeometry>
        </mxCell>
        <mxCell id="_PZLdivWwmrrmcJgCPUn-22" value="load_board" style="rounded=0;whiteSpace=wrap;html=1;" vertex="1" parent="1">
          <mxGeometry x="680" y="180" width="120" height="60" as="geometry" />
        </mxCell>
        <mxCell id="_PZLdivWwmrrmcJgCPUn-36" style="edgeStyle=orthogonalEdgeStyle;rounded=0;orthogonalLoop=1;jettySize=auto;html=1;exitX=0.75;exitY=0;exitDx=0;exitDy=0;entryX=0;entryY=0.75;entryDx=0;entryDy=0;" edge="1" parent="1" source="_PZLdivWwmrrmcJgCPUn-34" target="_PZLdivWwmrrmcJgCPUn-1">
          <mxGeometry relative="1" as="geometry" />
        </mxCell>
        <mxCell id="_PZLdivWwmrrmcJgCPUn-40" value="array(options)" style="edgeLabel;html=1;align=center;verticalAlign=middle;resizable=0;points=[];" vertex="1" connectable="0" parent="_PZLdivWwmrrmcJgCPUn-36">
          <mxGeometry x="-0.6684" y="-3" relative="1" as="geometry">
            <mxPoint as="offset" />
          </mxGeometry>
        </mxCell>
        <mxCell id="_PZLdivWwmrrmcJgCPUn-34" value="hint" style="rounded=0;whiteSpace=wrap;html=1;" vertex="1" parent="1">
          <mxGeometry x="-20" y="180" width="120" height="60" as="geometry" />
        </mxCell>
        <mxCell id="_PZLdivWwmrrmcJgCPUn-41" value="edit_board" style="rounded=0;whiteSpace=wrap;html=1;" vertex="1" parent="1">
          <mxGeometry x="-320" y="180" width="120" height="60" as="geometry" />
        </mxCell>
        <mxCell id="_PZLdivWwmrrmcJgCPUn-44" style="edgeStyle=orthogonalEdgeStyle;rounded=0;orthogonalLoop=1;jettySize=auto;html=1;exitX=0.75;exitY=0;exitDx=0;exitDy=0;entryX=0.089;entryY=-0.046;entryDx=0;entryDy=0;entryPerimeter=0;" edge="1" parent="1" source="_PZLdivWwmrrmcJgCPUn-41" target="_PZLdivWwmrrmcJgCPUn-1">
          <mxGeometry relative="1" as="geometry">
            <Array as="points">
              <mxPoint x="-230" y="-130" />
              <mxPoint x="203" y="-130" />
            </Array>
          </mxGeometry>
        </mxCell>
        <mxCell id="_PZLdivWwmrrmcJgCPUn-47" value="validate_prompt" style="rounded=0;whiteSpace=wrap;html=1;" vertex="1" parent="1">
          <mxGeometry x="-500" y="180" width="120" height="60" as="geometry" />
        </mxCell>
        <mxCell id="_PZLdivWwmrrmcJgCPUn-48" value="play_game" style="rounded=0;whiteSpace=wrap;html=1;" vertex="1" parent="1">
          <mxGeometry x="-320" y="320" width="120" height="60" as="geometry" />
        </mxCell>
        <mxCell id="_PZLdivWwmrrmcJgCPUn-49" value="validate_filename" style="rounded=0;whiteSpace=wrap;html=1;" vertex="1" parent="1">
          <mxGeometry x="330" y="320" width="120" height="60" as="geometry" />
        </mxCell>
      </root>
    </mxGraphModel>
  </diagram>
</mxfile>
